<svg id="eye" xmlns="http://www.w3.org/2000/svg" width="61.493" height="38.026" viewBox="0 0 61.493 38.026">
  <g id="Layer_2_11_" transform="translate(0 0)">
    <g id="Group_1" data-name="Group 1" transform="translate(0 0)">
      <path id="Path_6" data-name="Path 6" d="M134.605,132.113a12.254,12.254,0,1,0,12.254,12.254A12.254,12.254,0,0,0,134.605,132.113Zm0,18.052a5.815,5.815,0,0,1-5.815-5.813,5.712,5.712,0,0,1,1.042-3.276,3.082,3.082,0,1,1,5.646-2.451,5.8,5.8,0,0,1-.873,11.54Z" transform="translate(-104.571 -124.648)" fill="#81b6b2"/>
      <path id="Path_7" data-name="Path 7" d="M33.122,80.744a32.64,32.64,0,0,0-9.15,1.085C12.345,84.818,0,97.267,0,100.253S15.77,118.77,28.372,118.77a32.541,32.541,0,0,0,9.15-1.088c11.626-2.989,23.971-14.751,23.971-18.424S45.724,80.744,33.122,80.744Zm-3.087,31.973a12.254,12.254,0,1,1,12.254-12.254A12.254,12.254,0,0,1,30.034,112.718Z" transform="translate(0 -80.744)" fill="#f7f1e6"/>
      <path id="Path_8" data-name="Path 8" d="M173.348,176.92a3.082,3.082,0,0,1-5.646,2.451,5.71,5.71,0,0,0-1.042,3.277,5.815,5.815,0,1,0,6.688-5.727Z" transform="translate(-142.441 -162.944)" fill="#2b3237"/>
      <path id="Path_9" data-name="Path 9" d="M174.664,169.254a3.092,3.092,0,1,0-2.758-1.708A3.085,3.085,0,0,0,174.664,169.254Z" transform="translate(-146.645 -151.118)" fill="#f7f1e6"/>
    </g>
  </g>
</svg>
