<svg xmlns="http://www.w3.org/2000/svg" width="53.712" height="53.712" viewBox="0 0 53.712 53.712">
  <g id="services_4" data-name="services 4" transform="translate(-36.978 10.022)">
    <g id="svgexport-6_-_2022-09-12T120157.650" data-name="svgexport-6 - 2022-09-12T120157.650" transform="translate(36.978 -10.022)">
      <g id="Group_68171" data-name="Group 68171" transform="translate(0 0)">
        <path id="Path_609" data-name="Path 609" d="M51.458,15.824l-5.484-3.281L44.739,7.429a4.712,4.712,0,0,0-4.953-3.6l-6.274.486L29.917,1.133a4.7,4.7,0,0,0-6.122,0L20.2,4.315,13.926,3.83a4.686,4.686,0,0,0-4.9,3.413L7.215,12.884l-4.96,2.938A4.7,4.7,0,0,0,.362,21.646L2.5,26.834.363,32.021a4.7,4.7,0,0,0,1.892,5.823L7.733,41.1l1.24,5.137a4.711,4.711,0,0,0,4.953,3.6l6.207-.479,3.662,3.22a4.7,4.7,0,0,0,6.122,0l3.662-3.22,6.207.479a4.676,4.676,0,0,0,4.953-3.6l1.235-5.114,5.484-3.281a4.7,4.7,0,0,0,1.892-5.823l-2.141-5.186,2.142-5.19a4.7,4.7,0,0,0-1.893-5.821Zm-24.6,28.342a17.31,17.31,0,1,1,17.31-17.31A17.329,17.329,0,0,1,26.856,44.166Z" transform="translate(0 0)" fill="#0075eb"/>
        <path id="Path_610" data-name="Path 610" d="M135.162,121a14.162,14.162,0,1,0,14.162,14.162A14.178,14.178,0,0,0,135.162,121Zm8.981,10.554L134.7,141a1.573,1.573,0,0,1-2.225,0l-6.294-6.294a1.573,1.573,0,0,1,2.225-2.225l5.182,5.182,8.329-8.329a1.573,1.573,0,1,1,2.225,2.225Z" transform="translate(-108.306 -108.306)" fill="#0075eb"/>
      </g>
    </g>
  </g>
</svg>
