<svg id="services_3" data-name="services 3" xmlns="http://www.w3.org/2000/svg" width="55.841" height="55.841" viewBox="0 0 55.841 55.841">
  <g id="Group_68126" data-name="Group 68126" transform="translate(0 0)">
    <g id="Page-1_68_">
      <g id="_x30_69---Support">
        <path id="Path_272_" d="M383.394,43.93c.24,0,.481.01.712.029h.116l.115.019h.019V41.042a18.293,18.293,0,0,0-10.591-16.588v1.184a5.609,5.609,0,0,1-.712,2.773,14.45,14.45,0,0,1,7.452,12.632V43.93Z" transform="translate(-332.367 -21.786)" fill="#0075eb"/>
        <path id="Path_271_" d="M46.613,28.409a5.608,5.608,0,0,1-.712-2.773V24.452A18.293,18.293,0,0,0,35.31,41.041v2.936c.308-.029.626-.048.963-.048h2.888V41.041A14.449,14.449,0,0,1,46.613,28.409Z" transform="translate(-31.459 -21.785)" fill="#0075eb"/>
        <path id="Path_270_" d="M5.777,253.748v-15.4H4.814a4.448,4.448,0,0,0-.953.1A4.814,4.814,0,0,0,0,243.158v5.777a4.814,4.814,0,0,0,4.814,4.814h.963Z" transform="translate(0 -212.349)" fill="#0075eb"/>
        <path id="Path_269_" d="M70.621,222.616v15.4a1.926,1.926,0,0,0,3.851,0v-15.4a1.926,1.926,0,1,0-3.851,0Z" transform="translate(-62.919 -196.621)" fill="#0075eb"/>
        <path id="Path_268_" d="M460.949,238.441a3.713,3.713,0,0,0-.472-.077c-.154-.01-.318-.019-.481-.019h-.963v15.4H460a4.814,4.814,0,0,0,4.814-4.814v-5.777A4.814,4.814,0,0,0,460.949,238.441Z" transform="translate(-408.969 -212.35)" fill="#0075eb"/>
        <path id="Path_267_" d="M407.995,220.69a1.931,1.931,0,0,0-1.925,1.926v15.4a1.926,1.926,0,0,0,3.851,0v-15.4A1.931,1.931,0,0,0,407.995,220.69Z" transform="translate(-361.782 -196.621)" fill="#0075eb"/>
        <path id="Path_266_" d="M185.053,0h-15.4a1.925,1.925,0,0,0-1.839,1.358,1.8,1.8,0,0,0-.087.568V3.851a1.876,1.876,0,0,0,.549,1.338h.01a1.852,1.852,0,0,0,1.367.587h15.4a1.851,1.851,0,0,0,1.367-.587h.01a1.876,1.876,0,0,0,.549-1.338V1.926a1.8,1.8,0,0,0-.087-.568A1.925,1.925,0,0,0,185.053,0Z" transform="translate(-149.431 0)" fill="#0075eb"/>
        <path id="Shape_135_" d="M153.757,194.207a12.516,12.516,0,1,0,8.85,3.666A12.516,12.516,0,0,0,153.757,194.207Zm5.495,18.011a.963.963,0,0,1-1.361,0l-4.814-4.814a.962.962,0,0,1-.282-.681v-8.665a.963.963,0,1,1,1.926,0v8.266l4.532,4.532A.963.963,0,0,1,159.252,212.218Z" transform="translate(-125.837 -173.026)" fill="#0075eb"/>
        <path id="Path_265_" d="M42.254,420.482a9.985,9.985,0,0,1-8.415-6.451h-.712a8.88,8.88,0,0,1-1.348-.106A11.966,11.966,0,0,0,42.1,422.407c1.4.116,2.927.193,4.573.241a5.773,5.773,0,0,1-.067-.915,6,6,0,0,1,.087-1.021C45.094,420.674,43.611,420.587,42.254,420.482Z" transform="translate(-28.313 -368.781)" fill="#0075eb"/>
        <path id="Path_264_" d="M212.66,459.034v1.926a.963.963,0,0,1-1.926,0v-1.926h-2.888v1.926a.963.963,0,0,1-1.926,0v-1.926a2.888,2.888,0,1,0,0,5.777h6.739a2.888,2.888,0,0,0,0-5.777Z" transform="translate(-180.889 -408.97)" fill="#0075eb"/>
      </g>
    </g>
  </g>
</svg>
