<svg id="services_2" data-name="services 2" xmlns="http://www.w3.org/2000/svg" width="49.583" height="43.383" viewBox="0 0 49.583 43.383">
  <g id="Group_68163" data-name="Group 68163" transform="translate(0 9.295)">
    <g id="Group_68162" data-name="Group 68162">
      <path id="Path_606" data-name="Path 606" d="M21.692,131.091v-3.1H3.1a3.1,3.1,0,0,0-3.1,3.1v6.2H22.346A27.746,27.746,0,0,1,21.692,131.091Z" transform="translate(0 -127.992)" fill="#0075eb"/>
    </g>
  </g>
  <g id="Group_68165" data-name="Group 68165" transform="translate(0 24.79)">
    <g id="Group_68164" data-name="Group 68164">
      <path id="Path_607" data-name="Path 607" d="M49.455,287.992c-2.113,3.257-5.336,6.027-9.954,8.68a4.656,4.656,0,0,1-4.62.006c-4.617-2.659-7.84-5.432-9.957-8.686H0v15.495a3.1,3.1,0,0,0,3.1,3.1H46.484a3.1,3.1,0,0,0,3.1-3.1V287.992Zm-35.51,9.3h-6.2a1.549,1.549,0,0,1,0-3.1h6.2a1.549,1.549,0,0,1,0,3.1Z" transform="translate(0 -287.992)" fill="#0075eb"/>
    </g>
  </g>
  <g id="Group_68167" data-name="Group 68167" transform="translate(24.791 0)">
    <g id="Group_68166" data-name="Group 68166">
      <path id="Path_608" data-name="Path 608" d="M279.852,36.782l-10.846-4.648a1.555,1.555,0,0,0-1.224,0l-10.846,4.648A1.546,1.546,0,0,0,256,38.2v6.2c0,8.525,3.152,13.508,11.624,18.389a1.558,1.558,0,0,0,1.543,0c8.472-4.868,11.624-9.851,11.624-18.389V38.2A1.544,1.544,0,0,0,279.852,36.782Zm-5.6,7.041-6.2,7.747a1.566,1.566,0,0,1-1.212.579h-.065a1.555,1.555,0,0,1-1.224-.688l-3.1-4.648a1.549,1.549,0,1,1,2.578-1.717l1.924,2.885,4.871-6.092a1.55,1.55,0,0,1,2.423,1.934Z" transform="translate(-256 -32.008)" fill="#0075eb"/>
    </g>
  </g>
</svg>
