<svg xmlns="http://www.w3.org/2000/svg" width="81.551" height="47.572" viewBox="0 0 81.551 47.572">
  <g id="services_1" data-name="services 1" transform="translate(-835.52 -653.987)">
    <g id="svgexport-6_-_2022-09-12T115344.759" data-name="svgexport-6 - 2022-09-12T115344.759" transform="translate(835.52 653.987)">
      <path id="Path_599" data-name="Path 599" d="M12.709,42.679H2.447l-.408,2.073a2.546,2.546,0,0,0,2.514,3.024h7.781a9.3,9.3,0,0,1-.136-1.7,11.271,11.271,0,0,1,.51-3.4ZM49,7.951A2.463,2.463,0,0,0,47.028,7H11.35A2.581,2.581,0,0,0,8.835,9.073L8.6,10.4h7.849a5.932,5.932,0,0,1,3.024,11.043,5.906,5.906,0,0,1,0,10.194,6.135,6.135,0,0,1,2.413,2.752,11.907,11.907,0,0,1,14.1,11.689,9.3,9.3,0,0,1-.136,1.7h3.534a2.546,2.546,0,0,0,2.481-2l7.645-35.679A2.46,2.46,0,0,0,49,7.951Z" transform="translate(4.791 -7)" fill="#0075eb"/>
      <path id="Path_600" data-name="Path 600" d="M30.038,10H22.766a2.584,2.584,0,0,0-2.514,2L14.815,37.49A2.556,2.556,0,0,0,17.3,40.582H19.13a9.3,9.3,0,0,1-.136-1.7,11.893,11.893,0,1,1,23.786,0,5.846,5.846,0,0,1-.068,1.087,2.221,2.221,0,0,0,.849-1.393L46.11,26.684a2.975,2.975,0,0,0,.068-.544A16.155,16.155,0,0,0,30.038,10Z" transform="translate(35.373 0.194)" fill="#0075eb"/>
      <path id="Path_601" data-name="Path 601" d="M16.441,14.1H4.548a2.548,2.548,0,0,1,0-5.1H16.441a2.548,2.548,0,0,1,0,5.1Z" transform="translate(4.796 -2.204)" fill="#0075eb"/>
      <path id="Path_602" data-name="Path 602" d="M18.839,17.1H3.548a2.548,2.548,0,0,1,0-5.1H18.839a2.548,2.548,0,0,1,0,5.1Z" transform="translate(2.398 4.99)" fill="#0075eb"/>
      <path id="Path_603" data-name="Path 603" d="M21.237,20.1H2.548a2.548,2.548,0,0,1,0-5.1H21.237a2.548,2.548,0,0,1,0,5.1Z" transform="translate(0 12.184)" fill="#0075eb"/>
      <path id="Path_604" data-name="Path 604" d="M25.495,32.99a8.495,8.495,0,1,1,8.495-8.495A8.5,8.5,0,0,1,25.495,32.99Z" transform="translate(40.765 14.582)" fill="#0075eb"/>
      <path id="Path_605" data-name="Path 605" d="M14.495,32.99a8.495,8.495,0,1,1,8.495-8.495A8.5,8.5,0,0,1,14.495,32.99Z" transform="translate(14.388 14.582)" fill="#0075eb"/>
    </g>
  </g>
</svg>
